<svg id="013" data-name="013" xmlns="http://www.w3.org/2000/svg" viewBox="0 0 94.44 130.26"><defs><style>.cls-1{stroke:#000;stroke-miterlimit:10;stroke-width:3px;}</style></defs><path class="cls-1" d="M236.87,84.78a45.28,45.28,0,0,0-18.94,4.12L207.64,71V95.38a45.7,45.7,0,0,0,48.18,76.72L266.11,190v-24.4a45.69,45.69,0,0,0-29.24-80.83Zm-29.23,68.58a37,37,0,0,1,0-45.71Zm29.23,14.26a36.93,36.93,0,0,1-20.63-6.27V103.22l17.82,31,17.45,30.37A36.82,36.82,0,0,1,236.87,167.62Zm2.82-40.85L222.23,96.39a37.08,37.08,0,0,1,35.28,3.27v58.13Zm26.42,26.59V107.65a37.08,37.08,0,0,1,0,45.71Z" transform="translate(-189.65 -65.37)"/></svg>