<svg id="013" data-name="013" xmlns="http://www.w3.org/2000/svg" viewBox="0 0 91.44 119.02"><defs><style>.cls-1{fill:red;}</style></defs><path class="cls-1" d="M266.11,165.61V190L255.82,172.1a41.74,41.74,0,0,0,3.82-2c.74-.42,1.46-.87,2.17-1.34A44.6,44.6,0,0,0,266.11,165.61Z" transform="translate(-191.15 -70.99)"/><path d="M236.87,84.78a45.28,45.28,0,0,0-18.94,4.12L207.64,71V95.38a45.7,45.7,0,0,0,48.18,76.72,41.74,41.74,0,0,0,3.82-2c.74-.42,1.46-.87,2.17-1.34a44.6,44.6,0,0,0,4.3-3.18,45.69,45.69,0,0,0-29.24-80.83Zm0,8.6a36.89,36.89,0,0,1,20.64,6.28v58.13l-17.82-31L222.23,96.39A36.82,36.82,0,0,1,236.87,93.38ZM199.75,130.5a36.92,36.92,0,0,1,7.89-22.85v45.71A36.93,36.93,0,0,1,199.75,130.5Zm37.12,37.12a36.93,36.93,0,0,1-20.63-6.27V103.22l17.82,31,17.45,30.37A36.82,36.82,0,0,1,236.87,167.62Zm29.24-14.26V107.65a37.08,37.08,0,0,1,0,45.71Z" transform="translate(-191.15 -70.99)"/></svg>